<svg id="azlyrics" xmlns="http://www.w3.org/2000/svg" viewBox="0 0 568.81 139.38"><defs><style>.cls-1{fill:#fff;}</style></defs><title>AZ</title><g id="az"><path class="cls-1" d="M2.51,101.83C5,95.84,7.71,90,10.39,84.1c3-6.59,5.88-13.23,8.86-19.83s6.25-13.41,9.15-20.21,5.85-13.24,8.86-19.83,5.9-13.22,8.92-20H68.62c3.2,7.22,6.46,14.7,10,22.06,2.58,5.41,4.91,11,7.32,16.46,3.15,7.2,6.55,14.29,9.68,21.49,2.64,6.08,5.52,12,8.17,18.12C107,89.82,114,105.9,114,106.78H92.37L83.91,88.12H30.86L22,107H0C0,106.67,1.94,103.23,2.51,101.83Zm66-49.66C65.22,45,62.33,37.75,59,30.64c-0.52-1.11-.94-2.27-1.49-3.6-3.74,6.6-6.22,13.6-9.18,20.35-3.11,7.09-6.55,14.07-9,21.37H76.21" transform="translate(0 -2.43)"/><path class="cls-1" d="M167.26,23H118.18V4.09h79.66v9.16c-2.6,3.76-5.08,7.43-7.64,11-3.38,4.77-6.84,9.49-10.23,14.26q-8.51,12-17,24c-5.11,7.23-10.41,14.32-15.53,21.56-0.85,1.2-1.52,2.37-2.43,3.8h52.81v18.91H117.13V94.9c3.73-5.23,7.48-10.52,11.26-15.79,3.4-4.76,6.86-9.47,10.24-14.25,4.92-7,9.73-14,14.8-20.87" transform="translate(0 -2.43)"/></g><g id="lyrics"><path class="cls-1" d="M211.86,4.88h18.82V92.24h42.38V108h-61.2V4.88Z" transform="translate(0 -2.43)"/><path class="cls-1" d="M293.41,33.49l13.46,39.93C308.41,78,309.94,83.67,311,88h0.46c1.22-4.28,2.6-9.79,4-14.69l11.63-39.78h20.2L328.6,84.29c-10.25,27.85-17.14,40.24-26,47.89a37.84,37.84,0,0,1-19.74,9.64l-4.28-15.91a32.25,32.25,0,0,0,11-5.2,32.82,32.82,0,0,0,10.25-11.78,7.55,7.55,0,0,0,1.22-3.37,8,8,0,0,0-1.07-3.67L272.76,33.49h20.66Z" transform="translate(0 -2.43)"/><path class="cls-1" d="M358.13,57.51c0-10.1-.15-17.29-0.61-24h16.37l0.61,14.23h0.61c3.67-10.56,12.39-15.91,20.35-15.91a19.74,19.74,0,0,1,4.44.46V50a26.11,26.11,0,0,0-5.51-.61c-9,0-15.15,5.81-16.83,14.23a32.25,32.25,0,0,0-.61,5.81V108H358.13V57.51Z" transform="translate(0 -2.43)"/><path class="cls-1" d="M432.64,12.68c0,5.66-4.13,10.1-10.71,10.1-6.27,0-10.4-4.44-10.4-10.1,0-5.81,4.28-10.25,10.56-10.25C428.51,2.43,432.49,6.87,432.64,12.68ZM412.6,108V33.49h19V108h-19Z" transform="translate(0 -2.43)"/><path class="cls-1" d="M506.54,105.71c-4,1.84-11.78,3.83-21.11,3.83-23.26,0-38.4-14.84-38.4-37.94,0-22.34,15.3-39.78,41.46-39.78,6.88,0,13.92,1.53,18.21,3.52L503.33,49.4a33.16,33.16,0,0,0-14.23-2.91c-14.38,0-22.95,10.56-22.8,24.17,0,15.3,9.95,24,22.8,24a36.8,36.8,0,0,0,14.84-2.91Z" transform="translate(0 -2.43)"/><path class="cls-1" d="M519.54,90.71a42,42,0,0,0,19.13,5.36c8.26,0,11.93-3.37,11.93-8.26,0-5-3.06-7.65-12.24-10.86-14.54-5-20.66-13-20.5-21.73,0-13.16,10.86-23.41,28.15-23.41a43.75,43.75,0,0,1,19.74,4.44l-3.67,13.31a33.46,33.46,0,0,0-15.76-4.29c-6.73,0-10.4,3.21-10.4,7.8,0,4.74,3.52,7,13,10.4,13.46,4.9,19.74,11.78,19.89,22.8,0,13.46-10.56,23.26-30.29,23.26-9,0-17.14-2.14-22.64-5.2Z" transform="translate(0 -2.43)"/></g></svg>