<svg id="Layer_1" data-name="Layer 1" xmlns="http://www.w3.org/2000/svg" viewBox="0 0 1253 321"><defs><style>.cls-1{fill:#f6f06c;}.cls-2{fill:#020201;}</style></defs><title>Genius</title><path class="cls-1" d="M0,321V0H1253V321H0ZM297.89,157.6c0,18-.07,36,0,54,0.06,10.5,6.83,18.38,17,18.52,25.81,0.36,51.63.24,77.44,0.08,6.28,0,11.05-4.21,12.88-10.06,2-6.29,1.19-7.4-5.27-7.4-21,0-42,.07-63,0-11.77-.05-17.86-6.25-17.88-18q0-26.48,0-53c0-17.32-.07-34.64.06-52,0-3.54-1-4.65-4.63-4.18-10.17,1.32-16.59,8.35-16.63,19C297.84,122.29,297.89,139.94,297.89,157.6ZM971,206.37c-8.17,3.31-16.08,5.66-24.42,6.07-18.93.94-36.27-2.72-49.06-18.1-9.95-12-13-26.44-13.16-41.51-0.28-21-.16-42,0-63,0-3.93-1.2-5.27-5.14-5.21-9.18.15-16.09,5.94-16.12,15.46-0.07,26.31-1.83,52.69,1,78.9,2.19,20.47,11.38,37.12,31.16,46.07,12.54,5.67,25.82,6.26,39.19,4.59,13.09-1.64,24.64-6.81,33.59-16.86C969.39,211.27,971.39,210,971,206.37Zm-775.47,2.82c-31.06,9.46-59.21,5.14-82.33-18s-27.27-51.41-17.46-82.37c-14.92,11.57-26.27,39.13-19.85,66.52,6.55,28,29,49.42,59.31,54.18C158.35,233.15,178.77,226.45,195.54,209.18ZM1095.9,88.51c-5,.57-7.81,2.73-10.6,4.59-23.94,16-24.78,49.72-1.64,66.36,7.82,5.62,16.76,8.65,26.11,10.62,8.28,1.75,16.77,2.55,24.88,5.07,4.34,1.35,9.25,3.06,10.21,7.86,1.24,6.24,4.59,5.18,8.59,3.87a25.14,25.14,0,0,0,8-3.95c8.21-6.53,7.48-17.54-1.55-22.87a38.54,38.54,0,0,0-12.18-4.24c-12.18-2.47-24.65-3.75-36.15-9-17.73-8.1-26.27-24.45-22.4-43.14C1090.22,98.63,1092.77,94.19,1095.9,88.51ZM507,157.82c0,17.66,0,35.32,0,53a31.84,31.84,0,0,0,1,8.4c2.11,7.86,9.24,12.08,18.3,11a15.38,15.38,0,0,0,13.26-14.64c0.06-1.42.06-2.84-1.45-3.37-9.07-3.21-9.83-10.6-9.81-18.67,0.09-34.15,0-68.3.12-102.45,0-4.09-1-5.55-5.29-5.41-10,.33-16,6.8-16.08,18.23C506.94,121.84,507,139.83,507,157.82Zm225.89-.33c0,19-.08,37.94,0,56.91,0.06,9,6.11,15.43,14.57,15.87,9.43,0.49,16.34-4.71,17.51-13.32,0.23-1.7,1-4.05-1.3-4.81-8.83-2.87-9.67-9.79-9.64-17.57,0.1-34.45,0-68.9.12-103.34,0-4-.86-5.7-5.2-5.62-9.6.18-16,6.41-16.07,16.46C732.83,120.55,732.89,139,732.89,157.49Zm-101.94,54.7c-14.89,2.93-20.82-6.8-26.79-16.87-14.52-24.48-29.25-48.84-43.93-73.23-1.07-1.78-1.71-4-3.8-5-2.37,1.14-1.5,3.22-1.5,4.88-0.07,12,.1,24-0.11,36a20.53,20.53,0,0,0,3.14,11.71c10,16.28,19.6,32.84,29.73,49C595.34,231,611.81,234.3,623,226.3,627.4,223.16,629.93,218.9,630.95,212.19Zm541.31-4.43c-2.45-2-4-.37-5.57.16q-40.45,13.54-75.22-11.13c-3.25-2.31-5.68-5.28-6.2-9.27-0.37-2.88-2-3.45-4.38-3.63-7-.52-13.19,3.7-16.11,11-2.7,6.75-.54,14,6.15,18.87,23.38,17.13,49.08,20.87,76.58,12.45C1157.73,223.08,1166.24,217.2,1172.26,207.76ZM946.58,187.93c9.24-1,15.24-4.82,19.54-11.4,4.14-6.33,5.72-13.53,5.81-20.88,0.27-22.3.1-44.6,0.23-66.9,0-3.13-1.32-4-4.16-4.09-9.91-.47-17,5.87-17.07,15.91-0.14,14.64.13,29.29-.09,43.93C950.64,158.69,952.61,173.08,946.58,187.93ZM619.43,169.16a1.9,1.9,0,0,0,1.15-2q0-39.2,0-78.4c0-2.5-1.46-2.9-3.53-3.07-10.47-.86-17.52,5.68-17.68,16.83-0.16,10.82,0,21.64-.05,32.46a8.65,8.65,0,0,0,1.16,4.74c5.52,9.09,11,18.21,16.45,27.32C617.56,168,617.94,169.25,619.43,169.16ZM128,114c2.11,2.14,3.77.59,5.4,0.19,15-3.72,28.79-1.22,40.89,8.38a14.92,14.92,0,0,0,10.28,3.59c12.07-.19,11.75-0.08,12.22-12,0.21-5.39-1.82-8.69-5.89-11.61-12.35-8.88-25.84-11.11-40.2-6.52A39.65,39.65,0,0,0,128,114Zm68.64,53.79c0-8.81,0-8.81-8.13-8.81H180c-9.31,0-14.79-3.8-17.29-12.65-1-3.63-2.65-3.92-5.75-2.88-7.8,2.65-12.21,9.8-11.13,18.43,0.93,7.47,7.54,13.38,15.45,13.69,3.16,0.13,6.33.13,9.49,0,3-.12,4.85.58,4.65,4.1-0.19,3.25,1.63,3.35,4.23,2.58a60.23,60.23,0,0,0,11-4.61C195,175.36,198,172.44,196.62,167.8ZM1155.33,125c8.55,0.06,16.23-7,16.76-14.56,0.12-1.67.22-3.41-1.78-4.2-3.62-1.41-6.39-4.17-9.7-6.06-11.39-6.5-23.38-8.38-35.92-4.06-5.26,1.81-9.22,5.26-9.8,11.39-0.28,3,.47,4.79,4,4.54,10.14-.72,18.87,3,26.78,9A18.84,18.84,0,0,0,1155.33,125Zm-779-27h-17c-14.47,0-14.42,0-13.55,14.53,0.15,2.47.84,3.63,3.48,3.61,14-.09,28,0.12,42-0.19,8-.18,13.44-5.23,14.61-12.5,0.57-3.58-.14-5.67-4.54-5.53C393,98.18,384.7,98,376.37,98Zm-30.48,57.38c0,5.45.07,10.09,0,14.73-0.05,2.53,1.25,3,3.43,3,13-.05,26,0.14,38.93-0.09,7.93-.14,13.43-5.69,14.28-13.28,0.38-3.35-.76-4.45-4.06-4.42-13.14.11-26.28,0-39.43,0H345.89Z"/><path class="cls-2" d="M297.89,157.6c0-17.66,0-35.31,0-53,0-10.66,6.46-17.7,16.63-19,3.67-.48,4.66.64,4.63,4.18-0.13,17.32-.06,34.64-0.06,52q0,26.48,0,53c0,11.7,6.11,17.9,17.88,18,21,0.09,42,0,63,0,6.46,0,7.23,1.1,5.27,7.4-1.83,5.84-6.6,10-12.88,10.06-25.81.16-51.63,0.28-77.44-.08-10.15-.14-16.92-8-17-18.52C297.82,193.58,297.89,175.59,297.89,157.6Z"/><path class="cls-2" d="M971,206.37c0.38,3.61-1.63,4.91-3,6.42-8.95,10.05-20.5,15.22-33.59,16.86-13.37,1.67-26.64,1.09-39.19-4.59-19.79-9-29-25.6-31.16-46.07-2.8-26.21-1-52.59-1-78.9,0-9.52,6.94-15.31,16.12-15.46,3.94-.06,5.17,1.28,5.14,5.21-0.16,21-.29,42,0,63,0.2,15.07,3.21,29.55,13.16,41.51,12.79,15.38,30.12,19,49.06,18.1C954.93,212,962.84,209.67,971,206.37Z"/><path class="cls-2" d="M195.54,209.18c-16.77,17.26-37.19,24-60.34,20.33-30.28-4.77-52.76-26.22-59.31-54.18-6.41-27.39,4.94-54.95,19.85-66.52-9.81,31-5.65,59.24,17.46,82.37S164.49,218.64,195.54,209.18Z"/><path class="cls-2" d="M1095.9,88.51c-3.13,5.68-5.68,10.11-6.73,15.17-3.87,18.69,4.68,35,22.4,43.14,11.51,5.26,24,6.55,36.15,9a38.54,38.54,0,0,1,12.18,4.24c9,5.33,9.76,16.34,1.55,22.87a25.14,25.14,0,0,1-8,3.95c-4,1.31-7.35,2.37-8.59-3.87-1-4.81-5.86-6.52-10.21-7.86-8.12-2.52-16.6-3.32-24.88-5.07-9.34-2-18.29-5-26.11-10.62-23.14-16.64-22.31-50.41,1.64-66.36C1088.09,91.24,1090.88,89.08,1095.9,88.51Z"/><path class="cls-2" d="M507,157.82c0-18-.06-36,0-54,0.05-11.43,6.05-17.9,16.08-18.23,4.24-.14,5.3,1.32,5.29,5.41-0.15,34.15,0,68.3-.12,102.45,0,8.07.74,15.46,9.81,18.67,1.5,0.53,1.51,2,1.45,3.37a15.38,15.38,0,0,1-13.26,14.64c-9.07,1.12-16.2-3.09-18.3-11a31.84,31.84,0,0,1-1-8.4C507,193.14,507,175.48,507,157.82Z"/><path class="cls-2" d="M732.89,157.49c0-18.47-.06-36.94,0-55.42,0-10,6.47-16.28,16.07-16.46,4.34-.08,5.21,1.67,5.2,5.62-0.13,34.45,0,68.9-.12,103.34,0,7.78.81,14.7,9.64,17.57,2.34,0.76,1.53,3.11,1.3,4.81-1.16,8.6-8.07,13.81-17.51,13.32-8.46-.44-14.52-6.83-14.57-15.87C732.81,195.44,732.89,176.47,732.89,157.49Z"/><path class="cls-2" d="M630.95,212.19c-1,6.7-3.54,11-7.95,14.11-11.2,8-27.66,4.7-35.33-7.57-10.13-16.21-19.71-32.76-29.73-49A20.53,20.53,0,0,1,554.81,158c0.22-12,0-24,.11-36,0-1.66-.86-3.74,1.5-4.88,2.09,1,2.73,3.21,3.8,5,14.68,24.39,29.41,48.75,43.93,73.23C610.13,205.39,616.06,215.12,630.95,212.19Z"/><path class="cls-2" d="M1172.26,207.76c-6,9.44-14.53,15.32-24.76,18.45-27.49,8.42-53.19,4.68-76.58-12.45-6.69-4.9-8.85-12.12-6.15-18.87,2.92-7.3,9.15-11.51,16.11-11,2.38,0.18,4,.76,4.38,3.63,0.52,4,3,7,6.2,9.27q34.78,24.69,75.22,11.13C1168.28,207.39,1169.8,205.71,1172.26,207.76Z"/><path class="cls-2" d="M946.58,187.93c6-14.85,4.06-29.24,4.26-43.42,0.21-14.64-.06-29.29.09-43.93,0.1-10,7.16-16.37,17.07-15.91,2.84,0.13,4.18,1,4.16,4.09-0.13,22.3,0,44.6-.23,66.9-0.09,7.34-1.66,14.55-5.81,20.88C961.81,183.11,955.82,186.9,946.58,187.93Z"/><path class="cls-2" d="M619.43,169.16c-1.5.09-1.88-1.16-2.46-2.12-5.49-9.1-10.93-18.23-16.45-27.32a8.65,8.65,0,0,1-1.16-4.74c0-10.82-.11-21.64.05-32.46,0.16-11.15,7.21-17.69,17.68-16.83,2.07,0.17,3.53.57,3.53,3.07q0,39.2,0,78.4A1.91,1.91,0,0,1,619.43,169.16Z"/><path class="cls-2" d="M128,114a39.65,39.65,0,0,1,22.69-18c14.36-4.6,27.85-2.36,40.2,6.52,4.07,2.92,6.11,6.22,5.89,11.61-0.47,11.91-.15,11.8-12.22,12a14.92,14.92,0,0,1-10.28-3.59c-12.1-9.61-25.92-12.1-40.89-8.38C131.75,114.61,130.09,116.16,128,114Z"/><path class="cls-2" d="M196.62,167.8c1.39,4.63-1.6,7.56-6,9.85a60.23,60.23,0,0,1-11,4.61c-2.6.77-4.42,0.68-4.23-2.58,0.2-3.51-1.68-4.22-4.65-4.1-3.16.13-6.33,0.13-9.49,0-7.91-.31-14.52-6.22-15.45-13.69-1.07-8.63,3.34-15.78,11.13-18.43,3.09-1,4.72-.76,5.75,2.88,2.49,8.85,8,12.63,17.29,12.65h8.5C196.62,159,196.62,159,196.62,167.8Z"/><path class="cls-2" d="M1155.33,125a18.84,18.84,0,0,1-9.63-4c-7.92-6-16.64-9.71-26.78-9-3.55.25-4.31-1.54-4-4.54,0.58-6.13,4.54-9.58,9.8-11.39,12.53-4.32,24.53-2.43,35.92,4.06,3.31,1.89,6.08,4.65,9.7,6.06,2,0.78,1.9,2.52,1.78,4.2C1171.56,118,1163.88,125.06,1155.33,125Z"/><path class="cls-2" d="M376.37,98c8.33,0,16.66.19,25-.08,4.4-.14,5.11,2,4.54,5.53-1.16,7.27-6.59,12.32-14.61,12.5-14,.31-28,0.09-42,0.19-2.65,0-3.33-1.14-3.48-3.61C345,98,344.91,98,359.39,98h17Z"/><path class="cls-2" d="M345.89,155.38H359c13.14,0,26.29.07,39.43,0,3.3,0,4.44,1.08,4.06,4.42-0.85,7.59-6.34,13.14-14.28,13.28-13,.23-26,0-38.93.09-2.18,0-3.49-.5-3.43-3C346,165.47,345.89,160.83,345.89,155.38Z"/></svg>