<svg id="Layer_2" data-name="Layer 2" xmlns="http://www.w3.org/2000/svg" viewBox="0 0 160.23 39.49"><defs><style>.cls-1{fill:#104577;}</style></defs><title>lyricwiki</title><path class="cls-1" d="M27.22,20.28l-5-12.77L14.92,8c1.42,3.6,2.54,6.35,3.6,9.13,2.63,6.88,6.66,13.63,2,21.22-0.27.43-.93,1.93,0.2,1.93h6L39.81,7.89H32.14Z" transform="translate(-1.83 -0.8)"/><path class="cls-1" d="M110.43,16.68l-0.93-.15L106.23,1.31h-5.77L97,16.18l-0.93-.11L91.94,1.43H84.16L93.5,31.12h6.81l3-13,3,13h6.88L122.42,1.3h-7.77Z" transform="translate(-1.83 -0.8)"/><path class="cls-1" d="M144.6,7.77l-5,6.13V1.27H133V31.2h6.44l0.08-5.49c1.66,1.94,3.77,4.09,4.86,5.36h8.37l-8.44-11.75,8.56-11.54H144.6Z" transform="translate(-1.83 -0.8)"/><path class="cls-1" d="M73.21,23.67V15.53l9.87-.94v-7c-4.55,0-8.51-.2-12.44.06a4.93,4.93,0,0,0-5,5.23c-0.09,4.49-.45,9,0.11,13.45,0.23,1.79,2.39,4.48,4,4.73,4.31,0.66,8.78.23,13.73,0.23l-0.42-6.83Z" transform="translate(-1.83 -0.8)"/><path class="cls-1" d="M8.54,22.78V0.8H1.83V31h18l-0.51-7.28Z" transform="translate(-1.83 -0.8)"/><path class="cls-1" d="M47.23,7.62c-2.27.83-5.86,2.38-6,3.92-0.68,6.46-.29,13-0.29,19.55h7V15.84l5.68-1.56V7.5C51.09,7.5,48.95,7,47.23,7.62Z" transform="translate(-1.83 -0.8)"/><path class="cls-1" d="M56.23,31.08h6.86V8H56.23v23.1Z" transform="translate(-1.83 -0.8)"/><path class="cls-1" d="M155.3,7.85V31h6.76V7.85H155.3Z" transform="translate(-1.83 -0.8)"/><path class="cls-1" d="M123.74,31h6.51V7.91h-6.51V31Z" transform="translate(-1.83 -0.8)"/><path class="cls-1" d="M127.84,0.85h-1.68a2.42,2.42,0,1,0,0,4.85h1.68A2.42,2.42,0,1,0,127.84.85Z" transform="translate(-1.83 -0.8)"/><path class="cls-1" d="M157.66,5.7h1.68a2.42,2.42,0,1,0,0-4.85h-1.68A2.42,2.42,0,1,0,157.66,5.7Z" transform="translate(-1.83 -0.8)"/><path class="cls-1" d="M58.76,6.14h1.68a2.42,2.42,0,1,0,0-4.85H58.76A2.42,2.42,0,1,0,58.76,6.14Z" transform="translate(-1.83 -0.8)"/></svg>