<svg id="Layer_2" data-name="Layer 2" xmlns="http://www.w3.org/2000/svg" viewBox="0 0 470.03 50.54"><defs><style>.cls-1{fill:#292929;}.cls-2{fill:#ed1b5a;}</style></defs><title>Untitled-1 [Recovered]</title><path class="cls-1" d="M60.38,8.1V56.7h-4V32c0-6.39.35-17.08,0.28-17.08H56.63c-0.07,0-2.15,3.75-4.17,7.36L39.55,44.76H37.4L24.49,22.33c-2-3.61-4.1-7.36-4.16-7.36H20.25c-0.07,0,.28,10.69.28,17.08V56.7h-4V8.1h3.75L33.16,30.25c4.38,7.43,5.21,9.58,5.28,9.58h0.07c0.07,0,.9-2.15,5.28-9.58L56.63,8.1h3.75Z" transform="translate(-16.57 -7.13)"/><polygon class="cls-1" points="88.44 45.75 88.44 49.57 56.43 49.57 56.43 0.97 88.02 0.97 88.02 4.79 60.39 4.79 60.39 21.73 82.67 21.73 82.67 25.41 60.39 25.41 60.39 45.75 88.44 45.75"/><polygon class="cls-1" points="131.34 0.97 131.34 4.79 114.67 4.79 114.67 49.57 110.65 49.57 110.65 4.79 94.06 4.79 94.06 0.97 131.34 0.97"/><path class="cls-1" d="M183.7,56.7l-11.59-19a24.6,24.6,0,0,1-3.26.21H159V56.7h-4V8.1h13.82c11.11,0,17.84,5.76,17.84,15,0,7.08-3.89,11.94-10.55,13.88L188.21,56.7H183.7ZM169.05,34.41c8.81,0,13.54-4.65,13.54-11.32,0-7.15-5.21-11.18-13.54-11.18H159V34.41h10.07Z" transform="translate(-16.57 -7.13)"/><path class="cls-1" d="M218.44,7.13A24.84,24.84,0,0,1,243.7,32.4a25.23,25.23,0,1,1-50.47,0,24.78,24.78,0,0,1,25.2-25.27m0,46.65c11.8,0,21.17-8.74,21.17-21.38S230.24,11,218.44,11s-21.1,8.61-21.1,21.38,9.23,21.38,21.1,21.38" transform="translate(-16.57 -7.13)"/><polygon class="cls-2" points="269.73 40.54 269.73 49.57 236.06 49.57 236.06 0.97 245.71 0.97 245.71 40.54 269.73 40.54"/><path class="cls-2" d="M327.22,8.1L308.47,34.41V56.7h-9.58V34.41L280.22,8.1H291l10,14a40.75,40.75,0,0,0,2.64,3.61h0.07a40.41,40.41,0,0,0,2.64-3.61l9.93-14h10.9Z" transform="translate(-16.57 -7.13)"/><path class="cls-2" d="M360.06,56.7l-9.64-16.6h-7.91V56.7h-9.65V8.1h17C361.8,8.1,369,14.56,369,24.34c0,6.66-3.26,11.53-9.16,14L370.9,56.7H360.06ZM342.51,31.5h8.61c5.34,0,7.84-3.47,7.84-7.15s-2.57-7.22-7.84-7.22h-8.61V31.5Z" transform="translate(-16.57 -7.13)"/><rect class="cls-2" x="361.64" y="0.97" width="9.65" height="48.59"/><path class="cls-2" d="M433.35,22.54a15.34,15.34,0,0,0-12.22-5.9C412,16.64,406,23.16,406,32.4,406,41.91,412.45,48,421.13,48a15.24,15.24,0,0,0,13.12-7.15L444,43.43a25.29,25.29,0,0,1-48-11A25.27,25.27,0,0,1,443.2,20Z" transform="translate(-16.57 -7.13)"/><path class="cls-2" d="M476.75,22.89a9.55,9.55,0,0,0-9.65-7.36c-4.44,0-7.28,2.15-7.28,5.07,0,3.89,5.48,5.28,11.59,7.36,7.08,2.43,15.2,6.18,15.2,14.85s-7.5,14.86-18.6,14.86c-10.2,0-17.22-5.76-19.86-14.58l9.3-2.49a11,11,0,0,0,11,8.47c5.21,0,7.91-2.57,7.91-5.83,0-4.93-6.59-6.11-13.46-8.54-5.76-2.08-13-5.07-13-13.54,0-7.57,7.5-14,17.77-14,9.09,0,16.31,5.55,18.4,13.19Z" transform="translate(-16.57 -7.13)"/></svg>